<svg width="9" height="9" viewBox="0 0 9 9" fill="none" xmlns="http://www.w3.org/2000/svg">
<path fill-rule="evenodd" clip-rule="evenodd" d="M1.31802 1.27808C2.13202 0.48875 3.25745 0 4.5 0C5.74255 0 6.86796 0.48875 7.68196 1.27808C8.49597 2.06741 8.99999 3.15874 8.99999 4.36364C8.99999 5.56853 8.49597 6.65984 7.68196 7.44918C6.86796 8.23851 5.74255 8.72726 4.5 8.72726C3.25745 8.72726 2.13202 8.23851 1.31802 7.44918C0.504023 6.65984 0 5.56853 0 4.36364C0 3.15874 0.504027 2.06741 1.31802 1.27808ZM4.5 0.608878C3.43068 0.608878 2.4631 1.02881 1.76201 1.70862C1.06096 2.38846 0.627906 3.32672 0.627906 4.36364C0.627906 5.40055 1.06096 6.33882 1.76202 7.01865C2.46309 7.69845 3.43068 8.1184 4.5 8.1184C5.56932 8.1184 6.53691 7.69845 7.23798 7.01865C7.93902 6.33882 8.3721 5.40055 8.3721 4.36364C8.3721 3.32672 7.93902 2.38842 7.23798 1.70862C6.53691 1.02881 5.56932 0.608878 4.5 0.608878Z" fill="#BABEC3"/>
</svg>
